{
  "accessors": [
    {
      "bufferView": 2,
      "componentType": 5126,
      "count": 704,
      "max": [
        50.539398193359375,
        4.1104001998901367,
        4.4015998840332031
      ],
      "min": [
        -13.291899681091309,
        -4.0542001724243164,
        -7.5371999740600586
      ],
      "type": "VEC3"
    },
    {
      "bufferView": 2,
      "byteOffset": 8448,
      "componentType": 5126,
      "count": 704,
      "max": [
        1,
        0.9998626708984375,
        0.98191088438034058
      ],
      "min": [
        -1,
        -0.99767893552780151,
        -0.99642342329025269
      ],
      "type": "VEC3"
    },
    {
      "bufferView": 1,
      "componentType": 5126,
      "count": 704,
      "max": [
        1.996399998664856,
        0.91740000247955322
      ],
      "min": [
        0.011300000362098217,
        0.0071000000461935997
      ],
      "type": "VEC2"
    },
    {
      "bufferView": 0,
      "componentType": 5125,
      "count": 1437,
      "max": [
        703
      ],
      "min": [
        0
      ],
      "type": "SCALAR"
    },
    {
      "bufferView": 2,
      "byteOffset": 16896,
      "componentType": 5126,
      "count": 3383,
      "max": [
        60.361301422119141,
        44.089698791503906,
        10.851900100708008
      ],
      "min": [
        -12.010100364685059,
        -44.089698791503906,
        -17.482500076293945
      ],
      "type": "VEC3"
    },
    {
      "bufferView": 2,
      "byteOffset": 57492,
      "componentType": 5126,
      "count": 3383,
      "max": [
        1,
        0.99999916553497314,
        0.99989974498748779
      ],
      "min": [
        -1,
        -0.99939084053039551,
        -0.99933373928070068
      ],
      "type": "VEC3"
    },
    {
      "bufferView": 1,
      "byteOffset": 5632,
      "componentType": 5126,
      "count": 3383,
      "max": [
        1.555400013923645,
        0.99629998207092285
      ],
      "min": [
        0.00139999995008111,
        0.0017000000225380063
      ],
      "type": "VEC2"
    },
    {
      "bufferView": 0,
      "byteOffset": 5748,
      "componentType": 5125,
      "count": 10014,
      "max": [
        3382
      ],
      "min": [
        0
      ],
      "type": "SCALAR"
    }
  ],
  "asset": {
    "extras": {
      "author": "techno-science3d (https://sketchfab.com/technoscience3d)",
      "license": "CC0-1.0 (http://creativecommons.org/publicdomain/zero/1.0/)",
      "source": "https://sketchfab.com/3d-models/nieuport-12-first-world-war-airplane-fb0665d6eafa49d1b9dcc2f9b16c37ff",
      "title": "Nieuport 12 - First World War Airplane"
    },
    "generator": "Sketchfab-7.80.0",
    "version": "2.0"
  },
  "bufferViews": [
    {
      "buffer": 0,
      "byteLength": 45804,
      "byteOffset": 0,
      "name": "floatBufferViews",
      "target": 34963
    },
    {
      "buffer": 0,
      "byteLength": 32696,
      "byteOffset": 45804,
      "byteStride": 8,
      "name": "floatBufferViews",
      "target": 34962
    },
    {
      "buffer": 0,
      "byteLength": 98088,
      "byteOffset": 78500,
      "byteStride": 12,
      "name": "floatBufferViews",
      "target": 34962
    }
  ],
  "buffers": [
    {
      "byteLength": 176588,
      "uri": "scene.bin"
    }
  ],
  "materials": [
    {
      "doubleSided": true,
      "emissiveFactor": [
        0,
        0,
        0
      ],
      "name": "Scene_-_Root",
      "pbrMetallicRoughness": {
        "baseColorFactor": [
          1,
          1,
          1,
          1
        ],
        "metallicFactor": 0,
        "roughnessFactor": 0.20000000000000001
      }
    }
  ],
  "meshes": [
    {
      "primitives": [
        {
          "attributes": {
            "NORMAL": 1,
            "POSITION": 0,
            "TEXCOORD_0": 2
          },
          "indices": 3,
          "material": 0,
          "mode": 4
        }
      ]
    },
    {
      "primitives": [
        {
          "attributes": {
            "NORMAL": 5,
            "POSITION": 4,
            "TEXCOORD_0": 6
          },
          "indices": 7,
          "material": 0,
          "mode": 4
        }
      ]
    }
  ],
  "nodes": [
    {
      "children": [
        1
      ],
      "name": "RootNode (gltf orientation matrix)",
      "rotation": [
        -0.70710678118654746,
        -0,
        -0,
        0.70710678118654757
      ]
    },
    {
      "children": [
        2
      ],
      "name": "RootNode (model correction matrix)"
    },
    {
      "children": [
        3,
        4
      ],
      "name": "c293c993930042df91ca41bf4abc7949.obj.cleaner.materialmerger.gles"
    },
    {
      "mesh": 0,
      "name": ""
    },
    {
      "mesh": 1,
      "name": ""
    }
  ],
  "scene": 0,
  "scenes": [
    {
      "name": "OSG_Scene",
      "nodes": [
        0
      ]
    }
  ]
}

